<svg width="933" height="193" viewBox="0 0 933 193" fill="none" xmlns="http://www.w3.org/2000/svg">
<rect width="933" height="193" fill="#191919"/>
<g id="OMBC">
<rect width="15363" height="16594" transform="translate(-8742 -2114)" fill="white" fill-opacity="0.1"/>
<g id="[PC] OMBC Intro(1)">
<g id="Layer_1" clip-path="url(#clip0_0_1)">
<g id="Group">
<g id="Group_2">
<path id="Vector" d="M548.868 100.938C548.808 102.407 548.709 103.876 548.57 105.326C548.313 108.305 547.897 111.244 547.362 114.123C540.446 151.913 511.594 181.978 474.498 190.616C468.83 191.927 462.985 192.741 456.98 193.019V184.222C463.005 183.924 468.87 183.031 474.498 181.581C506.739 173.28 531.766 147.068 538.444 114.123C539.019 111.244 539.475 108.305 539.772 105.326C539.911 103.876 540.03 102.407 540.089 100.938H548.868Z" fill="white"/>
<path id="Vector_2" d="M448.221 184.224V193.021C442.217 192.743 436.371 191.929 430.704 190.618C413.067 186.527 397.294 177.571 384.849 165.24C375.397 155.886 367.867 144.567 362.913 131.957C361.724 128.939 360.674 125.841 359.802 122.684C359.029 119.884 358.355 117.024 357.84 114.125H366.757C366.836 114.562 366.935 114.999 367.034 115.436C367.748 118.732 368.659 121.969 369.729 125.126C374.168 138.074 381.52 149.631 391.032 159.044C401.871 169.767 415.465 177.671 430.684 181.583C436.331 183.032 442.177 183.946 448.201 184.224H448.221Z" fill="white"/>
<path id="Vector_3" d="M548.864 92.1408H540.086C540.007 90.6713 539.908 89.2018 539.769 87.7521C539.472 84.7734 539.036 81.8344 538.441 78.955C534.993 61.9566 526.651 46.7255 514.939 34.8504C505.566 25.3185 494.014 17.9512 481.113 13.503L487.93 6.67188C500.513 11.6364 511.789 19.1824 521.142 28.6547C534.438 42.1383 543.811 59.5339 547.358 78.9749C547.893 81.8543 548.29 84.7933 548.567 87.772C548.686 89.2216 548.785 90.6713 548.864 92.1606V92.1408Z" fill="white"/>
<path id="Vector_4" d="M478.678 3.57444L471.445 10.8226C466.769 9.79 461.933 9.15454 456.999 8.89639C455.553 8.81696 454.086 8.77724 452.62 8.77724C451.55 8.77724 450.48 8.77724 449.429 8.83681C449.033 8.83681 448.617 8.85667 448.221 8.89639C442.197 9.19426 436.351 10.0879 430.703 11.5375C398.463 19.8382 373.435 46.0507 366.777 78.9753H357.859C364.775 41.1855 393.627 11.1205 430.723 2.50211C436.39 1.19148 442.236 0.377302 448.24 0.0992901C449.687 0.039716 451.153 0 452.62 0C454.086 0 455.553 0.039716 456.999 0.0992901C457.356 0.0992901 457.732 0.139006 458.089 0.158864C463.697 0.476592 469.186 1.27091 474.517 2.50211C475.924 2.81984 477.311 3.17728 478.678 3.57444Z" fill="white"/>
<path id="Vector_5" d="M463.913 18.3685L435.655 46.6861L430.721 51.6307L403.454 78.9752H379.457L387.284 71.1313L427.253 31.0777L430.721 27.6025L439.678 18.6267C442.472 18.17 445.345 17.8522 448.239 17.6934C449.685 17.6139 451.152 17.5742 452.618 17.5742C454.084 17.5742 455.551 17.6139 456.997 17.6934C459.336 17.8125 461.634 18.0508 463.913 18.3685Z" fill="white"/>
<path id="Vector_6" d="M531.449 96.5477C531.449 98.0172 531.409 99.4867 531.33 100.936C531.251 102.406 531.132 103.875 530.973 105.325C530.636 108.324 530.161 111.243 529.507 114.122C523.166 142.201 501.923 164.561 474.537 172.465C468.929 174.093 463.063 175.106 457.02 175.424V157.83C463.163 157.393 469.028 156.062 474.537 153.957C492.233 147.186 505.965 132.451 511.415 114.122C512.267 111.262 512.901 108.324 513.337 105.325H457.039V92.9534V52.8799C463.38 53.5154 469.305 55.4813 474.557 58.5395V87.7705H513.337C512.901 84.7719 512.267 81.8329 511.415 78.9734C508.521 69.2429 503.31 60.5451 496.394 53.4955C490.291 47.2403 482.86 42.3155 474.537 39.1382C469.702 37.2914 464.569 36.0205 459.239 35.4645L466.888 27.7794L474.141 20.5312C474.26 20.571 474.398 20.6107 474.517 20.6504C487.675 24.4433 499.406 31.5922 508.759 41.0843C518.865 51.3707 526.178 64.3976 529.487 78.9734C530.141 81.8329 530.636 84.7719 530.953 87.7705C531.112 89.2201 531.231 90.6697 531.31 92.1591C531.389 93.6087 531.429 95.0981 531.429 96.5676L531.449 96.5477Z" fill="white"/>
<path id="Vector_7" d="M448.22 87.7734V175.447C442.176 175.109 436.311 174.096 430.703 172.488V105.348H356.65C356.551 104.256 356.472 103.163 356.412 102.071C356.393 101.694 356.373 101.336 356.353 100.959C356.294 99.5095 356.254 98.04 356.254 96.5705C356.254 95.101 356.294 93.6315 356.353 92.1621C356.412 90.6926 356.512 89.2231 356.65 87.7734H448.22Z" fill="white"/>
</g>
<path id="Vector_8" d="M608.195 67.8368V58.5234H658.825V67.8368H639.307V122.903H627.892V67.8368H608.195Z" fill="white"/>
<path id="Vector_9" d="M694.473 122.903V58.5234H735.056V67.8368H705.887V85.1133H730.32V94.4267H705.887V113.49H735.472V122.903H694.473Z" fill="white"/>
<path id="Vector_10" d="M768.426 122.903L792.939 58.5234H805.542L830.133 122.903H817.788L811.268 105.368H786.082L779.563 122.903H768.406H768.426ZM789.471 96.1345H807.9L798.685 71.2326L789.471 96.1345Z" fill="white"/>
<path id="Vector_11" d="M862.473 122.903V58.5234H877.692L895.605 102.827L913.876 58.5234H927.311V122.903H916.313V76.2169L897.21 122.903H892.395L873.451 76.3956V122.903H862.453H862.473Z" fill="white"/>
<g id="Group_3">
<path id="Vector_12" d="M64.64 111.343H77.0647V125.918H64.64V146.174H46.8056V125.918H0V115.195L43.3576 46.8438H64.64V111.343ZM20.4898 111.601H47.0632L46.9245 68.2904L20.4898 111.601Z" fill="white"/>
<path id="Vector_13" d="M129.439 45.5156C148.344 45.5156 167.506 56.6361 167.506 91.4671V93.4529C167.506 124.968 151.257 147.487 125.476 147.487C115.429 147.487 107.245 144.448 102.469 140.477V121.016C106.294 127.37 113.705 133.209 124.287 133.209C135.384 133.209 145.827 124.729 148.344 103.938C141.745 109.498 132.748 111.365 127.339 111.365C107.78 111.365 95.3555 98.6557 95.3555 78.9168C95.3555 59.1779 110.416 45.5355 129.459 45.5355L129.439 45.5156ZM130.648 96.9082C137.92 96.9082 144.004 94.3862 149.017 88.965C148.482 68.5708 139.506 59.8332 129.459 59.8332C119.412 59.8332 114.121 68.0545 114.121 78.2416C114.121 87.9125 119.412 96.9082 130.648 96.9082Z" fill="white"/>
<g id="Group_4">
<path id="Vector_14" d="M196.477 65.8299V59.0781H233.156V65.8299H219.007V105.725H210.744V65.8299H196.477Z" fill="white"/>
<path id="Vector_15" d="M256.855 105.744V59.0977H265.119V78.2408H288.7V59.0977H296.963V105.744H288.7V84.9925H265.119V105.744H256.855Z" fill="white"/>
</g>
<path id="Vector_16" d="M302.392 131.484H196.555V138.256H302.392V131.484Z" fill="white"/>
</g>
</g>
<g id="Group_5">
<path id="Vector_17" d="M626.801 188.65V169.924H629.753L629.952 171.553C630.724 170.401 632.23 169.547 633.935 169.547C637.145 169.547 639.919 172.208 639.919 176.596C639.919 180.985 637.165 183.646 633.935 183.646C632.349 183.646 630.883 182.971 629.952 181.859V188.65H626.801ZM629.952 179.079C630.586 180.429 631.834 181.184 633.142 181.184C634.767 181.184 636.63 179.714 636.63 176.596C636.63 173.479 634.906 171.97 633.201 171.97C631.894 171.97 630.586 172.804 629.952 174.094V179.079Z" fill="white"/>
<path id="Vector_18" d="M649.668 183.272V169.928H652.621L652.759 172.132C653.314 170.583 654.86 169.57 656.762 169.57C657.079 169.57 657.575 169.63 657.812 169.689V172.509C657.475 172.39 657.079 172.311 656.643 172.311C654.88 172.311 653.274 173.403 652.819 175.21V183.272H649.668Z" fill="white"/>
<path id="Vector_19" d="M666.078 176.318C666.078 172.406 668.615 169.547 672.38 169.547C676.145 169.547 678.483 172.208 678.483 176.457V177.689H669.189C669.407 179.873 670.675 181.184 672.855 181.204C674.559 181.223 676.065 180.707 677.591 179.178V182.177C676.422 183.09 674.718 183.626 672.855 183.626C668.436 183.626 666.098 180.767 666.098 176.815V176.318H666.078ZM675.352 175.306C675.352 173.161 674.123 171.91 672.3 171.93C670.695 171.95 669.328 173.24 669.209 175.306H675.352Z" fill="white"/>
<path id="Vector_20" d="M687.852 179.079C688.903 180.429 690.429 181.164 692.014 181.164C693.698 181.164 694.332 180.489 694.332 179.674C694.332 179.019 694.015 178.543 692.648 178.046L691.3 177.53C689.16 176.696 687.813 175.544 687.813 173.419C687.813 171.294 689.358 169.547 692.608 169.547C694.293 169.547 695.818 170.222 696.73 170.917V173.955C695.422 172.565 693.976 172.009 692.648 172.009C691.162 172.009 690.785 172.784 690.785 173.24C690.785 173.916 691.32 174.293 692.608 174.77L693.916 175.266C696.274 176.14 697.324 177.411 697.324 179.396C697.324 182.177 695.085 183.646 691.935 183.646C690.211 183.646 688.625 182.971 687.793 182.177V179.099L687.852 179.079Z" fill="white"/>
<path id="Vector_21" d="M706.324 176.318C706.324 172.406 708.861 169.547 712.626 169.547C716.391 169.547 718.729 172.208 718.729 176.457V177.689H709.435C709.653 179.873 710.922 181.184 713.101 181.204C714.805 181.223 716.312 180.707 717.837 179.178V182.177C716.668 183.09 714.964 183.626 713.101 183.626C708.682 183.626 706.344 180.767 706.344 176.815V176.318H706.324ZM715.598 175.306C715.598 173.161 714.37 171.91 712.546 171.93C710.941 171.95 709.574 173.24 709.455 175.306H715.598Z" fill="white"/>
<path id="Vector_22" d="M728.516 183.269V169.924H731.468L731.666 171.85C732.499 170.719 733.985 169.547 735.907 169.547C738.84 169.547 740.584 171.314 740.584 174.531V183.249H737.433V174.531C737.433 173.121 736.937 171.989 735.392 171.989C733.846 171.989 732.201 173.399 731.666 175.127V183.269H728.516Z" fill="white"/>
<path id="Vector_23" d="M749.48 172.349V169.926H752.354V165.875H755.505V169.926H758.457V172.349H755.505V183.271H752.354V172.349H749.48Z" fill="white"/>
<path id="Vector_24" d="M766.664 176.318C766.664 172.406 769.201 169.547 772.966 169.547C776.731 169.547 779.069 172.208 779.069 176.457V177.689H769.775C769.993 179.873 771.261 181.184 773.441 181.204C775.145 181.223 776.651 180.707 778.177 179.178V182.177C777.008 183.09 775.304 183.626 773.441 183.626C769.022 183.626 766.684 180.767 766.684 176.815V176.318H766.664ZM775.938 175.306C775.938 173.161 774.709 171.91 772.886 171.93C771.281 171.95 769.914 173.24 769.795 175.306H775.938Z" fill="white"/>
<path id="Vector_25" d="M794.09 169.551C795.675 169.551 797.142 170.226 798.073 171.338V164.547H801.224V183.273H798.271L798.073 181.664C797.3 182.796 795.814 183.65 794.09 183.65C790.88 183.65 788.105 180.989 788.105 176.601C788.105 172.212 790.86 169.551 794.09 169.551ZM794.823 181.228C796.131 181.228 797.439 180.394 798.073 179.103V174.118C797.439 172.748 796.19 171.994 794.883 171.994C793.258 171.994 791.395 173.463 791.395 176.621C791.395 179.778 793.119 181.247 794.843 181.247L794.823 181.228Z" fill="white"/>
<path id="Vector_26" d="M825.812 183.273V164.547H828.963V171.338C829.895 170.246 831.361 169.551 832.946 169.551C836.157 169.551 838.931 172.212 838.931 176.601C838.931 180.989 836.176 183.65 832.946 183.65C831.242 183.65 829.756 182.796 828.963 181.664L828.765 183.273H825.812ZM828.963 179.083C829.597 180.374 830.885 181.208 832.213 181.208C833.917 181.208 835.641 179.738 835.641 176.581C835.641 173.423 833.779 171.954 832.154 171.954C830.846 171.954 829.597 172.709 828.963 174.079V179.063V179.083Z" fill="white"/>
<path id="Vector_27" d="M846.738 169.93H850.107L853.595 179.481L857.181 169.93H860.213L852.782 188.656H849.592L852.009 183.235L846.758 169.93H846.738Z" fill="white"/>
<path id="Vector_28" d="M883.52 183.275V164.688H886.809V172.73L894.656 164.688H898.857L889.801 173.743L899.273 183.275H894.517L886.809 175.093V183.275H883.52Z" fill="white"/>
<path id="Vector_29" d="M908.484 167.903V164.547H911.635V167.903H908.484ZM908.484 183.273V169.928H911.635V183.273H908.484Z" fill="white"/>
<path id="Vector_30" d="M922.2 176.958C923.25 175.787 924.954 175.27 927.035 174.952L929.849 174.516C929.71 172.808 928.66 171.894 926.639 171.894C925.172 171.894 923.567 172.728 922.557 174.138V171.08C923.429 170.365 924.915 169.531 927.293 169.531C930.424 169.531 933.02 171.12 933.02 175.052V183.233H930.384L930.087 181.704C928.838 182.896 927.531 183.611 925.589 183.611C922.913 183.611 921.328 182.042 921.328 179.5C921.328 178.428 921.665 177.574 922.2 176.938V176.958ZM926.183 181.128C927.848 181.128 929.274 179.957 929.889 178.606V176.74L928.303 177.018C925.846 177.435 925.311 177.832 924.895 178.209C924.598 178.507 924.439 178.884 924.439 179.381C924.439 180.453 925.153 181.108 926.203 181.108L926.183 181.128Z" fill="white"/>
</g>
</g>
</g>
</g>
<defs>
<clipPath id="clip0_0_1">
<rect width="933" height="193" fill="white"/>
</clipPath>
</defs>
</svg>
