<svg preserveAspectRatio="none" width="100%" height="100%" overflow="visible" style="display: block;" viewBox="0 0 16 16" fill="none" xmlns="http://www.w3.org/2000/svg">
<g id="Globe Icon">
<path id="Vector" d="M13.5 7.99828C13.5 11.0349 11.0376 13.4966 8 13.4966C4.96243 13.4966 2.5 11.0349 2.5 7.99828M13.5 7.99828C13.5 4.96166 11.0376 2.5 8 2.5M13.5 7.99828H2.5M2.5 7.99828C2.5 4.96166 4.96243 2.5 8 2.5M8 2.5V13.5M8 13.5C8 13.5 5.25 12.4003 5.25 8C5.25 3.59966 8 2.5 8 2.5C8 2.5 10.75 3.59966 10.75 8C10.75 12.4003 8 13.5 8 13.5Z" stroke="var(--stroke-0, #8D959A)"/>
</g>
</svg>
