<svg width="96" height="24" overflow="visible" style="display: block;" viewBox="0 0 96 24" fill="none" xmlns="http://www.w3.org/2000/svg">
<g id="CI" clip-path="url(#clip0_0_48)">
<g id="Rectangle 153132">
</g>
<path id="Vector" d="M55.566 20.6133C55.566 20.7845 55.6202 20.8856 55.7208 20.8856C55.7905 20.8856 55.8601 20.8545 55.9453 20.7922L85.3579 1.60488C85.8765 1.26252 86.3486 1.08356 87.053 1.08356H93.516C94.5145 1.08356 95.1724 1.75271 95.1724 2.74865V15.1512C95.1724 16.6529 94.8396 17.5165 93.516 18.318L85.6752 23.0487C85.5746 23.1109 85.4895 23.1498 85.4121 23.1498C85.3192 23.1498 85.2263 23.072 85.2263 22.8075V8.33524C85.2263 8.17962 85.1721 8.05513 85.0638 8.05513C84.9941 8.05513 84.9244 8.08625 84.8393 8.14072L63.3449 22.1772C62.7411 22.5663 62.2458 22.6908 61.6962 22.6908H47.4466C46.4558 22.6908 45.7902 22.0216 45.7902 21.0257V3.14547C45.7902 3.01319 45.736 2.89648 45.6354 2.89648C45.5657 2.89648 45.4961 2.92761 45.4032 2.98207L31.2232 11.5409C31.0839 11.6265 31.0452 11.6965 31.0452 11.7666C31.0452 11.8288 31.0684 11.8833 31.169 11.9844L41.2932 22.1617C41.4247 22.3017 41.5176 22.4029 41.5176 22.504C41.5176 22.6285 41.3706 22.683 41.1925 22.683H32.0282C31.3083 22.683 30.7588 22.574 30.3718 22.185L24.2261 16.0149C24.1642 15.9526 24.1177 15.9215 24.0481 15.9215C23.9939 15.9215 23.9242 15.9448 23.8546 15.9837L13.5834 22.185C12.9642 22.5585 12.5307 22.683 11.927 22.683H2.48399C1.48551 22.683 0.827594 22.0138 0.827594 21.0179V8.84099C0.827594 7.3393 1.16042 6.48342 2.48399 5.682L10.3712 0.920168C10.4486 0.873483 10.5183 0.850141 10.5879 0.850141C10.704 0.850141 10.7737 0.974633 10.7737 1.25474V17.5321C10.7737 17.7033 10.8201 17.7811 10.9285 17.7811C10.9982 17.7811 11.0756 17.7344 11.1607 17.6799L37.8101 1.58931C38.4448 1.20028 38.8395 1.09134 39.5671 1.09134H53.9096C54.9081 1.09134 55.566 1.76049 55.566 2.75643" fill="var(--fill-0, white)"/>
</g>
<defs>
<clipPath id="clip0_0_48">
<rect width="96" height="24" fill="white"/>
</clipPath>
</defs>
</svg>
