<svg preserveAspectRatio="none" width="100%" height="100%" overflow="visible" style="display: block;" viewBox="0 0 17.5512 18" fill="none" xmlns="http://www.w3.org/2000/svg">
<g id="Group 1179">
<path id="Vector" d="M4.0239 5.9989H0.269531V17.9999H4.0239V5.9989Z" fill="var(--fill-0, #788187)"/>
<path id="Vector_2" d="M17.5512 11.5656V18H13.7968V12.0009C13.7968 10.4234 13.6074 9.14557 11.7698 9.14557C9.93217 9.14557 9.74558 10.4262 9.74558 12.0009V18H5.99121V5.99903H9.74558V7.71507C10.311 6.46832 11.3796 5.67957 13.3558 5.67957C13.5084 5.67957 13.6554 5.68522 13.7968 5.6937C17.1865 5.89442 17.5512 8.44446 17.5512 11.5656Z" fill="var(--fill-0, #788187)"/>
<path id="Vector_3" d="M4.3 2.14859C4.3 0.96121 3.33596 0 2.14859 0C0.96121 0 0 0.96121 0 2.14859C0 3.33596 0.96121 4.29717 2.14859 4.29717C3.33596 4.29717 4.29717 3.33596 4.29717 2.14859H4.3Z" fill="var(--fill-0, #788187)"/>
</g>
</svg>
