<svg preserveAspectRatio="none" width="100%" height="100%" overflow="visible" style="display: block;" viewBox="0 0 21.9961 15.4961" fill="none" xmlns="http://www.w3.org/2000/svg">
<g id="Group">
<path id="Exclude" d="M11.002 0C11.0129 2.95648e-07 17.8797 0.000531405 19.5977 0.46582C20.5446 0.718069 21.2897 1.46721 21.542 2.42188C21.9999 4.14891 21.9961 7.75 21.9961 7.75C21.9961 7.77518 21.9944 11.3573 21.5381 13.0781C21.2858 14.0289 20.5407 14.7781 19.5938 15.0342C17.8781 15.4959 10.998 15.4961 10.998 15.4961C10.9875 15.4961 4.11662 15.4956 2.40234 15.0342C1.45544 14.7819 0.710258 14.0328 0.458008 13.0781C0.00168933 11.3573 5.64478e-06 7.77518 0 7.75C0 7.75 0.000161765 4.14887 0.461914 2.41797C0.714163 1.46718 1.45935 0.718044 2.40625 0.461914C4.12178 0.000142928 11.002 0 11.002 0ZM8.75098 11.0215L14.502 7.75L8.75098 4.47852V11.0215Z" fill="var(--fill-0, #788187)"/>
</g>
</svg>
